<?xml version="1.0" encoding="iso-8859-1"?>
<!-- Generator: Adobe Illustrator 18.0.0, SVG Export Plug-In . SVG Version: 6.00 Build 0)  -->
<!DOCTYPE svg PUBLIC "-//W3C//DTD SVG 1.1//EN" "http://www.w3.org/Graphics/SVG/1.1/DTD/svg11.dtd">
<svg version="1.1" id="Capa_1" xmlns="http://www.w3.org/2000/svg" xmlns:xlink="http://www.w3.org/1999/xlink" x="0px" y="0px"
	 viewBox="0 0 452.966 452.966" style="enable-background:new 0 0 452.966 452.966;" xml:space="preserve">
<g>
	<g id="XMLID_25_">
		<g>
			<path style="fill:#999999;" d="M85.885,153.822v14.67h-14.67C73.545,161.612,79.005,156.162,85.885,153.822z"/>
			<rect x="188.315" y="241.962" style="fill:#999999;" width="10" height="10"/>
			<rect x="254.645" y="241.962" style="fill:#999999;" width="10" height="10"/>
			<path style="fill:#999999;" d="M381.755,168.492h-14.67v-14.67C373.965,156.162,379.415,161.612,381.755,168.492z"/>
			<path style="fill:#4D4D4D;" d="M414.055,175.992v114.27c0,24.86-20.22,45.08-45.08,45.08h-1.89v5.75c0,6.6-1.96,12.75-5.32,17.91
				h6.94c10.97,0,19.89,8.92,19.89,19.89v43.31c0,10.97-8.92,19.89-19.89,19.89h-56.92v3.12c0,4.15-3.36,7.5-7.5,7.5
				c-4.14,0-7.5-3.35-7.5-7.5v-3.12h-140.6v3.12c0,4.15-3.36,7.5-7.5,7.5s-7.5-3.35-7.5-7.5v-3.12h-56.92
				c-10.97,0-19.89-8.92-19.89-19.89v-43.31c0-10.97,8.92-19.89,19.89-19.89h6.94c-3.36-5.16-5.32-11.31-5.32-17.91v-5.75h-1.89
				c-24.86,0-45.09-20.22-45.09-45.08v-114.27c0-4.14,3.36-7.5,7.5-7.5h9.32c3.01-15.17,14.99-27.14,30.16-30.16v-33.05
				c0-41,33.35-74.35,74.35-74.35h25v-3.89c0-14.77,12.02-26.79,26.79-26.79h28.92c14.77,0,26.79,12.02,26.79,26.79v3.89h25
				c41,0,74.35,33.35,74.35,74.35v33.05c15.17,3.02,27.14,14.99,30.16,30.16h9.31C410.695,168.492,414.055,171.852,414.055,175.992z
				 M399.055,290.262v-65.63h-31.97v95.71h1.89C385.565,320.342,399.055,306.852,399.055,290.262z M399.055,209.632v-26.14h-31.97
				v26.14H399.055z M367.085,168.492h14.67c-2.34-6.88-7.79-12.33-14.67-14.67V168.492z M373.595,422.202v-43.31
				c0-2.7-2.19-4.89-4.89-4.89h-56.92v53.09h56.92C371.405,427.092,373.595,424.902,373.595,422.202z M352.085,341.092v-235.81
				c0-32.72-26.62-59.35-59.35-59.35h-132.5c-32.73,0-59.35,26.63-59.35,59.35v235.81c0,9.88,8.03,17.91,17.91,17.91h22.39v-14.39
				c0-4.15,3.36-7.5,7.5-7.5s7.5,3.35,7.5,7.5v14.39h140.6v-14.39c0-4.15,3.36-7.5,7.5-7.5c4.14,0,7.5,3.35,7.5,7.5v14.39h22.39
				C344.055,359.002,352.085,350.972,352.085,341.092z M296.785,427.092v-53.09h-140.6v53.09H296.785z M252.735,30.932v-3.89
				c0-6.5-5.29-11.79-11.79-11.79h-28.92c-6.5,0-11.79,5.29-11.79,11.79v3.89H252.735z M141.185,427.092v-53.09h-56.92
				c-2.7,0-4.89,2.19-4.89,4.89v43.31c0,2.7,2.19,4.89,4.89,4.89H141.185z M85.885,320.342v-95.71h-31.98v65.63
				c0,16.59,13.5,30.08,30.09,30.08H85.885z M85.885,209.632v-26.14h-31.98v26.14H85.885z M85.885,168.492v-14.67
				c-6.88,2.34-12.34,7.79-14.67,14.67H85.885z"/>
			<path style="fill:#45A1DB;" d="M399.055,224.632v65.63c0,16.59-13.49,30.08-30.08,30.08h-1.89v-95.71H399.055z"/>
			<rect x="367.085" y="183.492" style="fill:#61B9E5;" width="31.97" height="26.14"/>
			<path style="fill:#EA6081;" d="M373.595,378.892v43.31c0,2.7-2.19,4.89-4.89,4.89h-56.92v-53.09h56.92
				C371.405,374.002,373.595,376.192,373.595,378.892z"/>
			<path style="fill:#45A1DB;" d="M352.085,105.282v235.81c0,9.88-8.03,17.91-17.91,17.91h-22.39v-14.39c0-4.15-3.36-7.5-7.5-7.5
				c-4.14,0-7.5,3.35-7.5,7.5v14.39h-140.6v-14.39c0-4.15-3.36-7.5-7.5-7.5s-7.5,3.35-7.5,7.5v14.39h-22.39
				c-9.88,0-17.91-8.03-17.91-17.91v-235.81c0-32.72,26.62-59.35,59.35-59.35h132.5C325.465,45.932,352.085,72.562,352.085,105.282z
				 M343.085,206.422v-60.66c0-4.14-3.36-7.5-7.5-7.5c-4.14,0-7.5,3.36-7.5,7.5v60.66c0,4.15,3.36,7.5,7.5,7.5
				C339.725,213.922,343.085,210.572,343.085,206.422z M343.085,119.092v-13.81c0-27.76-22.59-50.35-50.35-50.35h-132.5
				c-27.77,0-50.35,22.59-50.35,50.35v101.14c0,4.15,3.35,7.5,7.5,7.5c4.14,0,7.5-3.35,7.5-7.5v-101.14
				c0-19.49,15.85-35.35,35.35-35.35h132.5c19.49,0,35.35,15.86,35.35,35.35v13.81c0,4.14,3.36,7.5,7.5,7.5
				C339.725,126.592,343.085,123.232,343.085,119.092z M318.045,198.632v-46.87c0-4.14-3.35-7.5-7.5-7.5h-168.13
				c-4.14,0-7.5,3.36-7.5,7.5v46.87c0,4.14,3.36,7.5,7.5,7.5h3.46v76.63c0,16.64,13.53,30.18,30.17,30.18h9.77v12.79
				c0,4.14,3.36,7.5,7.5,7.5s7.5-3.36,7.5-7.5v-12.79h51.33v12.79c0,4.14,3.36,7.5,7.5,7.5c4.15,0,7.5-3.36,7.5-7.5v-12.79h9.77
				c16.64,0,30.18-13.54,30.18-30.18v-76.63h3.45C314.695,206.132,318.045,202.772,318.045,198.632z"/>
			<path style="fill:#4D4D4D;" d="M343.085,145.762v60.66c0,4.15-3.36,7.5-7.5,7.5c-4.14,0-7.5-3.35-7.5-7.5v-60.66
				c0-4.14,3.36-7.5,7.5-7.5C339.725,138.262,343.085,141.622,343.085,145.762z"/>
			<path style="fill:#4D4D4D;" d="M343.085,105.282v13.81c0,4.14-3.36,7.5-7.5,7.5c-4.14,0-7.5-3.36-7.5-7.5v-13.81
				c0-19.49-15.86-35.35-35.35-35.35h-132.5c-19.5,0-35.35,15.86-35.35,35.35v101.14c0,4.15-3.36,7.5-7.5,7.5
				c-4.15,0-7.5-3.35-7.5-7.5v-101.14c0-27.76,22.58-50.35,50.35-50.35h132.5C320.495,54.932,343.085,77.522,343.085,105.282z"/>
			<path style="fill:#4D4D4D;" d="M318.045,151.762v46.87c0,4.14-3.35,7.5-7.5,7.5h-3.45v76.63c0,16.64-13.54,30.18-30.18,30.18
				h-9.77v12.79c0,4.14-3.35,7.5-7.5,7.5c-4.14,0-7.5-3.36-7.5-7.5v-12.79h-51.33v12.79c0,4.14-3.36,7.5-7.5,7.5s-7.5-3.36-7.5-7.5
				v-12.79h-9.77c-16.64,0-30.17-13.54-30.17-30.18v-76.63h-3.46c-4.14,0-7.5-3.36-7.5-7.5v-46.87c0-4.14,3.36-7.5,7.5-7.5h168.13
				C314.695,144.262,318.045,147.622,318.045,151.762z M303.045,191.132v-31.87h-153.13v31.87H303.045z M292.095,282.762v-76.63
				h-24.95v20.83h5c4.15,0,7.5,3.36,7.5,7.5v25c0,4.14-3.35,7.5-7.5,7.5h-5v30.98h9.77
				C285.285,297.942,292.095,291.132,292.095,282.762z M264.645,251.962v-10h-10v10H264.645z M252.145,297.942v-30.98h-5
				c-4.14,0-7.5-3.36-7.5-7.5v-25c0-4.14,3.36-7.5,7.5-7.5h5v-20.83h-51.33v20.83h5c4.14,0,7.5,3.36,7.5,7.5v25
				c0,4.14-3.36,7.5-7.5,7.5h-5v30.98H252.145z M198.315,251.962v-10h-10v10H198.315z M185.815,297.942v-30.98h-5
				c-4.14,0-7.5-3.36-7.5-7.5v-25c0-4.14,3.36-7.5,7.5-7.5h5v-20.83h-24.94v76.63c0,8.37,6.8,15.18,15.17,15.18H185.815z"/>
			<rect x="149.915" y="159.262" style="fill:#61B9E5;" width="153.13" height="31.87"/>
			<rect x="156.185" y="374.002" style="fill:#EA6081;" width="140.6" height="53.09"/>
			<path style="fill:#61B9E5;" d="M292.095,206.132v76.63c0,8.37-6.81,15.18-15.18,15.18h-9.77v-30.98h5c4.15,0,7.5-3.36,7.5-7.5
				v-25c0-4.14-3.35-7.5-7.5-7.5h-5v-20.83H292.095z"/>
			<path style="fill:#61B9E5;" d="M252.145,266.962v30.98h-51.33v-30.98h5c4.14,0,7.5-3.36,7.5-7.5v-25c0-4.14-3.36-7.5-7.5-7.5h-5
				v-20.83h51.33v20.83h-5c-4.14,0-7.5,3.36-7.5,7.5v25c0,4.14,3.36,7.5,7.5,7.5H252.145z"/>
			<path style="fill:#61B9E5;" d="M185.815,266.962v30.98h-9.77c-8.37,0-15.17-6.81-15.17-15.18v-76.63h24.94v20.83h-5
				c-4.14,0-7.5,3.36-7.5,7.5v25c0,4.14,3.36,7.5,7.5,7.5H185.815z"/>
			<path style="fill:#EA6081;" d="M141.185,374.002v53.09h-56.92c-2.7,0-4.89-2.19-4.89-4.89v-43.31c0-2.7,2.19-4.89,4.89-4.89
				H141.185z"/>
			<path style="fill:#45A1DB;" d="M85.885,224.632v95.71h-1.89c-16.59,0-30.09-13.49-30.09-30.08v-65.63H85.885z"/>
			<rect x="53.905" y="183.492" style="fill:#61B9E5;" width="31.98" height="26.14"/>
		</g>
		<g>
		</g>
	</g>
</g>
<g>
</g>
<g>
</g>
<g>
</g>
<g>
</g>
<g>
</g>
<g>
</g>
<g>
</g>
<g>
</g>
<g>
</g>
<g>
</g>
<g>
</g>
<g>
</g>
<g>
</g>
<g>
</g>
<g>
</g>
</svg>
